<?xml version="1.0" encoding="UTF-8"?>
<!-- Created with Inkscape (http://www.inkscape.org/) -->
<svg width="22" height="40" version="1.1" viewBox="0 0 22 40" xmlns="http://www.w3.org/2000/svg" xmlns:cc="http://creativecommons.org/ns#" xmlns:dc="http://purl.org/dc/elements/1.1/" xmlns:rdf="http://www.w3.org/1999/02/22-rdf-syntax-ns#" xmlns:xlink="http://www.w3.org/1999/xlink">
 <defs>
  <linearGradient id="linearGradient4179" x1="253" x2="253" y1="236.36" y2="196.36" gradientUnits="userSpaceOnUse">
   <stop stop-color="#31363b" offset="0"/>
   <stop stop-color="#424649" offset="1"/>
  </linearGradient>
  <linearGradient id="linearGradient4171" x1="256" x2="256" y1="232.36" y2="199.36" gradientUnits="userSpaceOnUse">
   <stop stop-color="#eff0f1" offset="0"/>
   <stop stop-color="#fcfcfc" offset="1"/>
  </linearGradient>
  <linearGradient id="linearGradient877" x1="246.46" x2="261.08" y1="208.44" y2="223.05" gradientTransform="translate(-243 -194.36)" gradientUnits="userSpaceOnUse">
   <stop stop-color="#1c0508" offset="0"/>
   <stop stop-color="#26080b" stop-opacity="0" offset="1"/>
  </linearGradient>
  <filter id="filter883" x="-.0012468" y="-.0011566" width="1.0025" height="1.0023" color-interpolation-filters="sRGB">
   <feGaussianBlur stdDeviation="0.017567787"/>
  </filter>
 </defs>
 <metadata>
  <rdf:RDF>
   <cc:Work rdf:about="">
    <dc:format>image/svg+xml</dc:format>
    <dc:type rdf:resource="http://purl.org/dc/dcmitype/StillImage"/>
    <dc:title/>
   </cc:Work>
  </rdf:RDF>
 </metadata>
 <g transform="translate(0 -1012.4)">
  <g transform="translate(-243 816)">
   <rect x="243" y="196.36" width="22" height="40" color="#000000" fill="url(#linearGradient4179)"/>
   <rect x="244" y="199.36" width="20" height="33" color="#000000" fill="url(#linearGradient4171)"/>
   <path transform="translate(243 196.36)" d="m11.166 10.348c-1.3812 0.05137-2.1815 0.39871-3.166 0.65234l-3.3281 2.7812c-1.085 0.90712-1.6719 3.2188-1.6719 3.2188v4l1 4 1.0371 2.8184 8.0879 8.1816h7.875v-21.346l-3.1816-3.1816c-3.3089-0.93176-5.2712-1.1764-6.6523-1.125z" fill="url(#linearGradient877)" filter="url(#filter883)" opacity=".2" stroke-width="0"/>
   <rect x="251" y="233.36" width="6" height="1" color="#000000" fill="#4d4d4d"/>
   <rect x="243" y="235.36" width="22" height="1" color="#000000" fill="#192629"/>
   <path d="m260.85 214.9c0.0225 0.60259-0.17583 0.89542-0.35517 1.4132l-0.32249 0.16037c-0.26364 0.51232 0.0262 0.32525-0.16263 0.73257-0.41205 0.3659-1.2486 1.1446-1.5165 1.2159-0.19581-4e-3 0.13244-0.23096 0.17534-0.31951-0.55097 0.37813-0.44223 0.56769-1.285 0.7979l-0.0244-0.0551c-2.0777 0.97773-4.964-0.95953-4.9261-3.6024-0.022 0.16762-0.063 0.12569-0.10897 0.19307-0.10719-1.3596 0.62804-2.7252 1.8682-3.2836 1.2129-0.6001 2.6349-0.35417 3.5031 0.4562-0.4769-0.62505-1.427-1.2878-2.5521-1.2264-1.1027 0.018-2.1346 0.71859-2.4788 1.4796-0.56468 0.35542-0.63054 1.3708-0.87647 1.5569-0.33147 2.4344 0.62281 3.4857 2.2373 4.723 0.25342 0.1711 0.0713 0.19729 0.10527 0.32748-0.53625-0.25092-1.0271-0.63003-1.4312-1.0942 0.2145 0.31353 0.44571 0.61833 0.74478 0.85776-0.50608-0.17085-1.1818-1.2254-1.3786-1.2683 0.87173 1.5609 3.5363 2.7374 4.9323 2.1535-0.64601 0.024-1.4664 0.0131-2.1917-0.2549-0.30554-0.15689-0.71933-0.4814-0.64524-0.542 1.9046 0.71112 3.8715 0.53825 5.5192-0.78244 0.41953-0.32674 0.87747-0.8822 1.0099-0.88968-0.19929 0.29981 0.0342 0.14417-0.11892 0.4088 0.41703-0.67369-0.18183-0.27437 0.43149-1.1633l0.22648 0.31178c-0.0847-0.55971 0.69464-1.2386 0.61532-2.1231 0.17884-0.27038 0.19929 0.29133 0.0102 0.91339 0.26313-0.69015 0.0695-0.80115 0.13693-1.3708 0.0726 0.19156 0.1691 0.39483 0.21824 0.59712-0.1716-0.6672 0.17535-1.1232 0.26165-1.511-0.0852-0.0374-0.26463 0.29481-0.30604-0.49286 6e-3 -0.3422 0.0956-0.17934 0.12969-0.26363-0.0669-0.0387-0.24318-0.30106-0.35018-0.80413 0.0771-0.11842 0.20752 0.30653 0.31327 0.32374-0.068-0.39982-0.18508-0.70487-0.19005-1.0119-0.30929-0.64601-0.10949 0.0863-0.35992-0.27736-0.32925-1.0261 0.27286-0.2382 0.31377-0.70412 0.49835 0.72208 0.78243 1.842 0.91338 2.3057-0.0998-0.56545-0.26064-1.1134-0.45745-1.6434 0.1519 0.0641-0.24418-1.1631 0.1973-0.35044-0.47115-1.7322-2.0148-3.351-3.4353-4.1102 0.17335 0.15889 0.39258 0.35842 0.31427 0.38985-0.70686-0.42029-0.58265-0.45345-0.68392-0.63104-0.57492-0.2342-0.61332 0.0193-0.99369 5e-4 -1.085-0.57567-1.294-0.51456-2.2924-0.87473l0.0453 0.21252c-0.71857-0.23945-0.8373 0.0903-1.6138 4.9e-4 -0.0472-0.0367 0.24893-0.13369 0.49287-0.16885-0.69491 0.0917-0.66247-0.13719-1.3424 0.0251 0.16737-0.11752 0.34496-0.19555 0.52354-0.29531-0.56644 0.0343-1.3529 0.32973-1.1102 0.0609-0.92411 0.41254-2.5656 0.99145-3.4867 1.8552l-0.029-0.19355c-0.42204 0.50658-1.8405 1.513-1.9535 2.1697l-0.11293 0.0262c-0.21925 0.37188-0.36166 0.79316-0.53576 1.1755-0.28708 0.4896-0.42102 0.18856-0.38012 0.26538-0.56494 1.1453-0.84604 2.1076-1.0882 2.8973 0.17261 0.25816 4e-3 1.5544 0.0693 2.5918-0.28335 5.1241 3.5962 10.099 7.8368 11.247 0.62156 0.22273 1.5457 0.21475 2.3318 0.2367-0.92734-0.26538-1.0471-0.14043-1.951-0.45544-0.65174-0.3073-0.79441-0.65774-1.2563-1.0586l0.18283 0.323c-0.90541-0.3205-0.52653-0.39658-1.2633-0.62979l0.19532-0.25466c-0.2936-0.0224-0.77746-0.49435-0.90965-0.7565l-0.32126 0.0128c-0.38561-0.47539-0.59138-0.81885-0.57617-1.085l-0.10374 0.18506c-0.11752-0.20178-1.4195-1.7854-0.74402-1.4167-0.12544-0.1142-0.29233-0.18632-0.47317-0.5153l0.13744-0.15689c-0.32449-0.41828-0.59811-0.95428-0.57716-1.1329 0.17335 0.23396 0.29358 0.27787 0.4128 0.31802-0.82085-2.0363-0.86699-0.11204-1.4883-2.0727l0.1312-0.0102c-0.10055-0.15239-0.16212-0.31677-0.24293-0.47864l0.0573-0.56993c-0.59062-0.68241-0.16512-2.9045-0.0795-4.1229 0.0587-0.49535 0.49311-1.0229 0.82309-1.8502l-0.20103-0.0343c0.3846-0.67045 2.1954-2.6935 3.0345-2.5898 0.40631-0.51031-0.0809-3e-3 -0.16038-0.13019 0.89268-0.92361 1.1733-0.65249 1.7756-0.81885 0.64924-0.38536-0.55746 0.15064-0.24968-0.14691 1.1232-0.28659 0.79565-0.65199 2.2605-0.7974 0.15465 0.0878-0.3584 0.13567-0.48711 0.24966 0.93533-0.45793 2.9604-0.35344 4.2763 0.25392 1.5257 0.71358 3.241 2.822 3.3088 4.8056l0.0771 0.0207c-0.0389 0.78867 0.12071 1.7008-0.15638 2.5384l0.18731-0.39682" fill="#da4453" stroke-width=".24942"/>
  </g>
 </g>
</svg>
