<?xml version="1.0" encoding="UTF-8" standalone="no"?>
<svg
   xmlns:dc="http://purl.org/dc/elements/1.1/"
   xmlns:cc="http://creativecommons.org/ns#"
   xmlns:rdf="http://www.w3.org/1999/02/22-rdf-syntax-ns#"
   xmlns:svg="http://www.w3.org/2000/svg"
   xmlns="http://www.w3.org/2000/svg"
   xmlns:sodipodi="http://sodipodi.sourceforge.net/DTD/sodipodi-0.dtd"
   xmlns:inkscape="http://www.inkscape.org/namespaces/inkscape"
   version="1.0"
   width="1500"
   height="1500"
   viewBox="0 0 15000.001 15000"
   preserveAspectRatio="xMidYMid meet"
   id="svg2039"
   sodipodi:docname="favicon_symbolic.svg"
   inkscape:version="0.92.2 2405546, 2018-03-11">
  <metadata
     id="metadata2045">
    <rdf:RDF>
      <cc:Work
         rdf:about="">
        <dc:format>image/svg+xml</dc:format>
        <dc:type
           rdf:resource="http://purl.org/dc/dcmitype/StillImage" />
        <dc:title></dc:title>
      </cc:Work>
    </rdf:RDF>
  </metadata>
  <defs
     id="defs2043" />
  <sodipodi:namedview
     pagecolor="#ffffff"
     bordercolor="#666666"
     borderopacity="1"
     objecttolerance="10"
     gridtolerance="10"
     guidetolerance="10"
     inkscape:pageopacity="0"
     inkscape:pageshadow="2"
     inkscape:window-width="1366"
     inkscape:window-height="703"
     id="namedview2041"
     showgrid="false"
     showguides="true"
     inkscape:zoom="0.24685976"
     inkscape:cx="1716.2393"
     inkscape:cy="557.19832"
     inkscape:window-x="0"
     inkscape:window-y="0"
     inkscape:window-maximized="1"
     inkscape:current-layer="svg2039" />
  <rect
     style="opacity:1;fill:#1a1a1a;fill-opacity:0;stroke:#f4f426;stroke-width:7.33228302;stroke-linecap:butt;stroke-linejoin:round;stroke-miterlimit:4;stroke-dasharray:0, 80.6551181;stroke-dashoffset:7.3322835;stroke-opacity:1;paint-order:stroke markers fill"
     id="rect2988"
     width="16957.287"
     height="25550.508"
     x="997.59686"
     y="-4096.4326"
     ry="357.414" />
  <g
     id="layer115"
     transform="translate(718.4447,454.92377)"
     style="fill:#003380;fill-opacity:1;stroke:#f4f426;stroke-opacity:0.72944294">
    <path
       d="m 5741,13462 c -31,-32 -67,-75 -81,-95 -14,-21 -32,-46 -40,-57 -8,-11 -25,-34 -38,-52 -12,-18 -37,-53 -55,-77 -18,-24 -36,-51 -42,-60 -5,-9 -22,-32 -37,-52 -16,-20 -28,-40 -28,-44 0,-3 -18,-28 -40,-54 -22,-26 -40,-52 -40,-57 0,-6 -11,-21 -25,-34 -14,-13 -25,-28 -25,-33 0,-6 -15,-28 -33,-51 -32,-40 -77,-103 -107,-150 -22,-34 -69,-100 -112,-156 -21,-26 -38,-52 -38,-57 0,-5 -11,-20 -25,-33 -14,-13 -25,-28 -25,-33 0,-5 -13,-26 -30,-47 -16,-21 -30,-41 -30,-45 0,-3 -17,-27 -38,-53 -20,-26 -42,-54 -47,-63 -6,-9 -24,-36 -42,-60 -18,-24 -43,-59 -55,-77 -13,-18 -27,-39 -33,-45 -22,-27 -55,-77 -55,-82 0,-4 -16,-26 -35,-49 -19,-24 -35,-46 -35,-50 0,-4 -18,-29 -40,-55 -22,-26 -40,-51 -40,-55 0,-4 -18,-29 -40,-55 -22,-26 -40,-51 -40,-55 0,-5 -14,-26 -32,-48 -44,-56 -78,-107 -78,-118 0,-5 -8,-15 -17,-22 -19,-14 -63,-73 -63,-83 0,-4 -16,-26 -35,-49 -19,-24 -35,-46 -35,-50 0,-4 -18,-29 -40,-55 -22,-26 -40,-50 -40,-54 0,-8 -105,-157 -160,-227 -16,-21 -30,-41 -30,-45 0,-3 -18,-28 -40,-54 -22,-26 -40,-51 -40,-55 0,-5 -17,-30 -37,-56 -21,-27 -63,-85 -93,-130 -30,-45 -72,-103 -92,-130 -21,-26 -38,-51 -38,-56 0,-4 -18,-29 -40,-55 -22,-26 -40,-51 -40,-54 0,-4 -14,-25 -32,-47 -44,-56 -78,-107 -78,-118 0,-5 -8,-15 -18,-22 -27,-20 -63,-78 -120,-195 -19,-37 -37,-75 -42,-83 -4,-9 -11,-31 -15,-50 -4,-19 -11,-40 -16,-45 -9,-13 -26,-155 -40,-345 -5,-74 -14,-148 -19,-165 -4,-16 -12,-95 -15,-175 -4,-80 -11,-150 -15,-155 -5,-6 -11,-46 -14,-90 -3,-44 -12,-159 -21,-255 -8,-96 -21,-247 -29,-335 -7,-88 -14,-160 -16,-160 -3,0 -22,-231 -41,-495 -6,-85 -15,-164 -19,-175 -5,-11 -11,-54 -14,-95 -3,-41 -10,-131 -16,-200 -6,-78 -9,-392 -8,-842 l 3,-717 40,-41 c 43,-44 54,-51 131,-89 27,-13 65,-32 84,-41 19,-10 55,-21 80,-25 25,-3 54,-10 65,-15 11,-5 52,-14 90,-20 39,-6 106,-17 150,-25 44,-8 115,-20 157,-27 42,-7 80,-16 84,-20 4,-5 22,-8 39,-8 17,0 35,-3 39,-7 7,-8 59,-18 221,-43 39,-6 79,-15 90,-20 11,-5 51,-12 89,-15 38,-4 77,-11 85,-15 9,-5 48,-14 86,-20 129,-20 140,-22 150,-30 6,-4 39,-11 75,-15 36,-4 70,-11 75,-15 6,-4 43,-11 84,-14 40,-4 81,-11 90,-16 9,-5 48,-14 86,-20 156,-24 214,-35 221,-42 4,-5 22,-8 40,-8 18,0 35,-4 38,-9 3,-4 38,-11 78,-15 55,-5 80,-13 105,-32 l 33,-25 v -196 -197 l -57,-53 c -32,-29 -63,-53 -68,-53 -14,0 -85,-73 -85,-87 0,-6 -7,-16 -16,-24 -9,-7 -25,-32 -36,-56 -19,-40 -23,-43 -59,-43 -21,0 -41,-4 -44,-10 -3,-5 -37,-10 -74,-10 -42,0 -80,-6 -97,-15 -16,-8 -36,-15 -45,-15 -10,0 -52,-17 -95,-37 -80,-38 -173,-117 -194,-165 -5,-13 -14,-30 -19,-38 -5,-8 -12,-23 -15,-33 -3,-9 -16,-21 -29,-26 -14,-5 -27,-17 -31,-26 -3,-9 -27,-25 -52,-36 -103,-46 -234,-215 -251,-324 -3,-22 -10,-45 -14,-51 -14,-17 -31,-306 -32,-519 0,-177 9,-270 32,-320 5,-11 16,-39 26,-62 10,-23 28,-52 41,-64 13,-12 24,-28 24,-34 0,-12 41,-55 53,-55 3,0 27,-14 52,-31 67,-46 75,-67 75,-213 0,-69 4,-127 9,-130 4,-3 11,-35 14,-71 5,-48 16,-85 43,-138 36,-70 127,-177 150,-177 6,0 33,-22 61,-48 l 50,-48 8,-167 c 4,-92 11,-170 16,-173 5,-3 9,-17 9,-32 0,-36 43,-158 64,-181 9,-10 16,-22 16,-27 0,-5 24,-33 53,-62 58,-58 176,-122 223,-122 17,0 37,-6 43,-14 15,-17 66,-21 596,-39 209,-7 387,-16 395,-19 8,-4 24,-8 35,-10 13,-2 21,-15 27,-43 15,-75 66,-162 135,-230 37,-36 75,-65 84,-65 10,0 20,-4 24,-9 9,-16 67,-41 94,-41 14,0 40,-8 56,-17 26,-14 74,-17 325,-21 162,-2 299,-8 304,-13 6,-5 119,-9 252,-9 151,0 245,-4 249,-10 4,-6 90,-10 225,-10 201,0 222,2 255,20 20,11 43,20 52,20 36,0 160,71 206,117 46,47 117,176 117,212 0,9 6,23 13,30 9,9 12,70 10,244 -2,224 -1,233 19,254 12,13 26,23 31,23 18,0 117,88 160,142 40,50 60,90 75,149 4,14 16,36 27,50 23,27 79,69 93,69 5,0 42,30 81,66 76,71 114,130 140,224 20,73 19,349 -3,565 -9,88 -23,225 -30,305 -7,80 -15,145 -16,145 -3,0 -18,156 -36,360 -3,33 -8,67 -11,75 -4,8 -13,78 -19,155 -20,224 -34,339 -44,360 -4,11 -11,40 -15,64 -9,66 -77,189 -137,248 -30,28 -88,69 -133,92 -44,23 -87,46 -95,51 -8,5 -23,11 -32,14 -10,3 -18,14 -18,24 0,11 -9,31 -20,45 -11,14 -20,29 -20,34 0,12 -112,122 -141,138 -70,40 -105,55 -126,55 -13,0 -41,9 -63,20 -35,18 -59,20 -234,20 -119,0 -197,4 -201,10 -3,6 -44,10 -90,10 h -84 l -15,32 c -12,24 -16,63 -16,168 v 136 l 28,27 c 15,15 35,27 44,27 9,0 19,4 23,9 3,6 27,13 53,17 26,3 52,10 57,14 6,4 30,12 55,18 25,6 72,18 105,27 33,9 80,21 105,27 25,5 49,14 55,19 5,5 21,9 36,9 15,0 30,4 34,9 3,6 27,13 53,17 26,3 52,10 57,14 6,4 30,12 55,18 93,22 135,34 151,42 9,5 34,12 55,15 22,4 49,11 62,16 12,5 32,13 45,18 12,5 40,13 62,16 22,4 45,10 50,15 6,4 31,11 57,14 26,4 50,11 53,16 3,5 30,12 60,15 31,4 57,11 60,15 3,5 24,11 48,15 23,3 52,10 65,16 12,5 32,13 45,18 12,5 39,12 61,16 21,3 46,10 55,15 9,5 36,14 61,20 25,6 70,18 100,26 30,8 75,20 100,26 25,5 49,14 55,19 5,5 21,9 35,9 14,0 30,4 35,9 6,5 30,14 55,19 25,6 72,18 105,27 33,9 80,21 105,27 25,6 50,14 55,18 6,4 29,10 53,14 24,3 51,10 60,15 9,5 37,15 62,22 25,7 61,21 80,31 19,10 40,18 47,18 36,0 178,134 213,202 45,85 52,121 57,273 2,83 0,184 -6,225 -6,41 -16,116 -23,165 -7,50 -16,95 -19,100 -4,6 -10,48 -14,95 -4,47 -11,90 -15,95 -4,6 -10,28 -13,50 -4,22 -13,81 -22,130 -9,50 -22,131 -29,180 -8,50 -15,90 -16,90 -3,0 -25,146 -40,265 -6,47 -15,93 -20,102 -6,10 -10,35 -10,56 0,21 -3,42 -7,46 -5,4 -13,47 -20,94 -7,48 -19,128 -28,177 -9,50 -22,128 -28,175 -7,47 -15,90 -18,95 -4,6 -10,48 -14,95 -4,47 -11,90 -15,95 -4,6 -10,28 -14,50 -26,178 -34,230 -36,230 -1,0 -8,41 -16,90 -7,50 -20,131 -29,180 -9,50 -20,126 -26,170 -5,44 -14,88 -19,97 -6,10 -10,35 -10,56 0,21 -3,42 -7,46 -5,4 -14,48 -20,97 -32,224 -38,265 -44,274 -4,6 -10,49 -14,98 -4,48 -11,90 -16,92 -4,3 -11,41 -15,85 -3,44 -11,83 -15,86 -5,3 -9,20 -9,39 0,19 -4,36 -9,39 -4,3 -11,29 -14,57 -4,28 -11,56 -16,63 -5,6 -12,28 -16,49 -4,21 -18,53 -31,73 -13,19 -24,39 -24,44 0,5 -13,25 -30,43 -16,19 -30,38 -30,43 0,11 -142,154 -153,154 -5,0 -75,61 -155,135 -81,74 -187,170 -236,212 -48,43 -116,104 -150,135 -33,32 -97,91 -142,133 -44,41 -84,75 -89,75 -4,0 -70,59 -145,130 -76,72 -141,130 -145,130 -4,0 -71,61 -150,135 -78,74 -146,135 -150,135 -4,0 -75,63 -158,140 -84,77 -192,175 -241,217 -48,43 -112,102 -141,131 -29,28 -57,52 -61,52 -4,0 -42,32 -83,70 -207,193 -370,340 -376,340 -4,0 -74,63 -155,140 -81,77 -151,140 -155,140 -4,0 -69,59 -145,130 -75,72 -141,130 -147,130 -5,0 -248.9915,239.992 -269.9915,262.992 -70,71 -240.9312,155.31 -348.5848,61.838 l -132.8474,-93.093 z m 464,-351 c 17,-10 239,-207 495,-436 443,-398 1323,-1188 2378,-2134 321,-287 489,-445 498,-466 7,-17 52,-261 99,-541 47,-280 108,-639 135,-799 47,-276 173,-1023 350,-2070 45,-264 92,-535 106,-603 22,-110 23,-126 10,-156 -17,-41 -36,-52 -141,-81 -44,-13 -303,-86 -575,-163 -1688,-479 -2000,-567 -2130,-599 -80,-19 -149,-38 -153,-43 -5,-4 -1,-203 7,-441 9,-239 17,-473 19,-522 2,-48 7,-91 13,-96 5,-6 223,-16 484,-23 342,-10 482,-18 498,-27 35,-19 49,-64 57,-181 4,-58 11,-112 16,-121 7,-14 32,-17 155,-21 l 146,-3 28,-31 c 17,-20 30,-48 34,-75 3,-24 42,-388 86,-809 44,-421 87,-811 95,-868 20,-135 19,-146 -9,-179 -24,-28 -25,-28 -173,-33 l -148,-5 3,-161 c 4,-181 -5,-218 -55,-230 -14,-4 -93,-4 -174,-1 -82,3 -151,3 -153,-2 -3,-4 11,-160 30,-347 52,-498 50,-446 21,-480 -24,-28 -29,-29 -109,-29 -45,0 -189,3 -318,8 -129,4 -390,12 -580,17 -190,6 -379,12 -420,15 -41,2 -90,4 -108,5 -23,0 -43,9 -63,29 l -29,29 v 170 c 0,94 -3,177 -6,186 -5,14 -33,16 -203,16 -108,0 -299,4 -426,10 -126,5 -346,14 -489,20 -142,6 -267,15 -277,21 -42,22 -43,38 -40,410 l 3,356 -32,7 c -18,3 -79,6 -137,6 -176,0 -186,14 -172,242 6,112 12,413 9,496 0,10 -31,12 -133,11 -80,-1 -142,3 -154,9 -40,22 -46,60 -34,219 6,82 16,227 21,323 6,96 15,186 21,200 17,45 45,54 184,60 l 130,5 5,126 c 6,145 17,173 77,187 21,5 152,15 292,21 140,6 258,14 262,17 5,3 9,56 9,119 0,63 4,125 10,139 14,38 54,53 185,65 65,7 121,14 123,16 2,2 5,254 7,559 2,419 -1,558 -10,566 -6,5 -45,14 -86,20 -124,17 -241,39 -554,100 -165,32 -430,84 -590,115 -159,31 -472,92 -695,135 -223,44 -468,91 -545,105 -159,30 -207,47 -225,80 -14,27 -13,53 19,365 12,113 41,426 66,695 53,574 135,1451 209,2245 39,418 58,574 69,597 9,17 95,141 190,275 95,133 304,428 463,653 2166,3058 1907,2695 1937,2712 31,17 58,16 92,-6 z"
       id="path596"
       style="fill:#003380;fill-opacity:1;stroke:#f4f426;stroke-opacity:0.72944294"
       inkscape:connector-curvature="0"
       sodipodi:nodetypes="ccscsccssssscccssscsccsccscssssscscscssscssscscssscscccscccccsccsccscccccccscsscsccsccccsccsccscccccccssccscscsccsccccccccsssscscccscccsscsssccccccscscccssscscssccscccscccsscccccccscssscscscsccsccscccssccscccccccccccsccccccsssccsccssccssssccsccsccccsccscccccsccsccccsccsccccscccscscssccccscscscccscssscscsccccccscccccccccccccccccccsccscccccccsccccscscsccccccscccccccccccscsccscccccccccccccccc" />
    <path
       d="m 6184,13044 c 3,-16 7,-63 7,-104 l 1,-75 66,-62 c 37,-34 73,-63 80,-65 7,-2 42,-30 77,-63 117,-110 191,-175 198,-175 3,0 27,-22 52,-49 25,-27 55,-51 67,-54 20,-6 21,-4 15,83 l -7,89 -42,39 c -24,21 -88,79 -144,128 -187,165 -319,283 -348,310 l -29,28 z"
       id="path598"
       inkscape:connector-curvature="0"
       style="fill:#003380;fill-opacity:1;stroke:#f4f426;stroke-opacity:0.72944294" />
    <path
       d="m 6764,12336 c -3,-14 -3,-49 0,-78 4,-29 9,-86 12,-126 5,-65 8,-74 32,-89 15,-10 70,-57 123,-105 53,-48 100,-88 104,-88 4,0 55,-43 113,-95 59,-52 133,-116 165,-142 32,-27 81,-68 110,-93 69,-59 117,-93 124,-86 3,3 1,18 -5,33 -6,15 -12,68 -15,116 l -3,88 -62,57 c -34,31 -85,77 -113,102 -65,57 -79,90 -79,189 v 80 l -47,44 c -125,116 -208,185 -216,180 -5,-3 -4,-10 2,-16 12,-12 15,-167 3,-167 -4,0 -37,29 -72,65 -35,36 -70,65 -76,65 -7,0 -30,21 -53,46 -40,46 -40,46 -47,20 z"
       id="path600"
       inkscape:connector-curvature="0"
       style="fill:#003380;fill-opacity:1;stroke:#f4f426;stroke-opacity:0.72944294" />
    <path
       d="m 6206,12283 c -3,-3 -6,-68 -6,-143 v -137 l 60,-49 c 33,-27 83,-67 111,-89 28,-22 63,-52 79,-67 50,-49 54,-42 47,106 -4,73 -9,140 -12,147 -3,8 -30,34 -61,59 -30,25 -90,75 -133,112 -43,37 -81,65 -85,61 z"
       id="path602"
       inkscape:connector-curvature="0"
       style="fill:#003380;fill-opacity:1;stroke:#f4f426;stroke-opacity:0.72944294" />
    <path
       d="m 6520,11663 c 0,-32 3,-94 7,-138 7,-90 -10,-69 163,-205 41,-33 89,-70 105,-84 17,-14 47,-38 68,-53 21,-16 61,-47 90,-71 53,-44 134,-102 143,-102 3,0 2,60 -2,133 -6,114 -5,131 7,122 8,-5 3,0 -11,12 -14,13 -29,23 -34,23 -9,0 -26,14 -163,130 -45,39 -85,70 -89,70 -3,0 -23,14 -43,30 -78,66 -178,146 -208,168 l -33,23 z"
       id="path604"
       inkscape:connector-curvature="0"
       style="fill:#003380;fill-opacity:1;stroke:#f4f426;stroke-opacity:0.72944294" />
    <path
       d="m 5682,11643 c -1,-6 -27,-41 -57,-77 -30,-35 -55,-68 -55,-71 0,-4 -21,-33 -48,-64 -26,-31 -55,-72 -64,-92 -9,-20 -30,-52 -47,-72 -17,-19 -31,-38 -31,-42 0,-11 -101,-125 -111,-125 -5,0 -9,50 -9,110 0,61 -3,110 -7,110 -9,0 -63,-65 -63,-75 0,-4 -20,-30 -44,-58 -24,-29 -48,-62 -55,-74 -14,-27 -15,-253 -1,-253 6,0 10,4 10,9 0,6 17,30 38,55 20,24 52,65 71,90 66,90 71,65 49,-272 -6,-100 -8,-186 -4,-190 4,-4 22,10 39,30 92,107 153,182 164,202 8,13 12,69 13,157 0,131 1,136 25,159 14,13 25,28 25,33 0,5 27,40 60,77 33,37 60,71 60,76 0,4 11,20 25,34 25,26 26,28 22,181 -1,85 -4,149 -5,142 z"
       id="path606"
       inkscape:connector-curvature="0"
       style="fill:#003380;fill-opacity:1;stroke:#f4f426;stroke-opacity:0.72944294" />
    <path
       d="m 7315,11333 c 4,-10 8,-58 10,-108 4,-135 19,-195 47,-195 9,0 39,-24 120,-96 14,-13 30,-24 35,-24 5,0 19,-10 30,-22 21,-23 26,-48 39,-210 6,-75 0,-67 163,-199 83,-66 107,-75 96,-31 -8,34 -24,206 -19,211 2,2 15,-4 29,-13 28,-18 29,-19 118,-97 55,-47 88,-59 78,-28 -3,8 -8,48 -12,89 -3,41 -9,84 -13,95 -3,11 -2,27 3,35 9,12 18,8 53,-26 24,-23 48,-43 54,-45 6,-2 34,-25 62,-50 l 50,-45 7,-95 c 9,-143 11,-151 51,-179 19,-14 66,-51 104,-83 51,-44 67,-63 63,-78 -3,-10 -1,-31 5,-47 6,-15 14,-66 17,-113 l 6,-85 91,-77 c 97,-83 125,-95 113,-49 -10,41 -28,213 -22,218 3,3 16,-4 28,-16 13,-11 49,-41 79,-66 64,-52 63,-51 94,-84 22,-24 49,-46 124,-106 25,-20 32,-33 32,-62 0,-19 4,-49 9,-66 5,-17 14,-69 20,-115 6,-46 15,-89 19,-95 5,-6 12,-47 16,-90 4,-44 13,-88 20,-98 9,-12 12,-35 9,-62 -3,-26 -1,-46 6,-50 6,-4 11,-31 11,-61 0,-30 5,-57 10,-60 6,-3 10,-14 10,-25 0,-18 88,-100 109,-100 6,0 22,-17 35,-37 19,-30 26,-58 31,-125 4,-49 11,-90 16,-94 14,-8 11,-34 -3,-33 -7,0 -33,16 -58,35 -56,42 -88,59 -97,51 -3,-4 -1,-46 6,-94 6,-49 14,-107 17,-131 5,-32 12,-45 28,-52 18,-7 94,-54 148,-91 17,-13 19,-23 41,-188 15,-116 7,-105 126,-180 l 70,-43 7,-89 c 3,-49 11,-92 15,-95 12,-7 12,-61 0,-68 -5,-3 -24,5 -42,17 -34,23 -91,54 -139,76 -14,6 -45,25 -70,41 -25,16 -55,34 -66,39 -24,11 -34,38 -34,98 0,23 -4,44 -9,47 -4,3 -11,40 -15,82 -7,86 -13,97 -70,126 -23,12 -56,32 -74,46 -18,14 -35,22 -38,19 -3,-3 -1,-45 6,-94 6,-48 13,-108 16,-133 3,-25 10,-49 15,-55 5,-5 9,-30 9,-55 0,-25 4,-50 9,-55 5,-6 12,-52 16,-102 8,-105 4,-111 -56,-70 -19,13 -58,35 -86,49 l -53,26 v -55 c 0,-30 4,-62 9,-71 4,-9 11,-52 15,-94 l 7,-77 -90,47 c -50,25 -93,43 -97,39 -7,-7 8,-193 22,-269 5,-29 3,-38 -8,-38 -22,0 -191,86 -210,106 -12,14 -18,49 -23,139 -4,66 -12,128 -17,138 -5,11 -7,30 -4,43 l 6,24 83,-41 c 45,-23 90,-49 101,-58 18,-16 18,-13 11,89 -4,58 -11,113 -16,122 -5,9 -9,32 -9,50 0,29 -6,35 -43,52 -60,27 -123,66 -166,102 -35,31 -62,46 -198,115 l -63,31 v 57 c 0,31 -4,61 -9,67 -14,15 -24,227 -10,219 14,-9 2,214 -13,232 -5,6 -8,18 -6,27 2,8 0,15 -4,16 -4,1 -24,17 -44,36 -21,19 -42,34 -47,34 -6,0 -35,17 -66,38 -31,20 -63,42 -72,47 -35,22 -106,69 -142,94 -55,38 -119,72 -125,66 -3,-3 0,-15 6,-28 6,-12 16,-137 22,-277 6,-140 16,-265 22,-277 6,-12 7,-33 3,-50 -5,-15 -7,-38 -6,-50 1,-12 6,-70 11,-130 5,-59 12,-123 16,-142 6,-31 5,-33 -17,-26 -13,4 -35,14 -48,24 -13,9 -62,36 -109,61 l -85,45 -3,45 c -2,25 -7,98 -12,162 -6,87 -12,122 -25,136 -12,13 -18,38 -19,83 l -1,64 -6,-58 -6,-58 -25,18 c -23,17 -70,43 -167,94 -24,13 -46,20 -49,16 -9,-9 16,-509 41,-792 4,-44 10,-136 13,-205 l 7,-125 55,-27 c 165,-81 223,-108 229,-108 10,0 0,221 -11,243 -5,11 -5,17 1,17 14,0 20,-30 24,-130 6,-127 2,-120 97,-166 107,-53 155,-74 169,-74 11,0 6,203 -7,250 -4,14 -7,61 -8,105 -1,44 -7,134 -13,200 -6,66 -9,126 -6,133 3,10 28,1 87,-31 174,-92 168,-87 169,-126 0,-20 5,-79 10,-131 5,-52 12,-121 15,-152 4,-40 10,-58 20,-58 13,0 67,-25 362,-168 l 112,-54 v -64 c 0,-34 4,-65 8,-68 5,-3 12,-46 15,-95 4,-49 13,-109 22,-133 8,-24 15,-66 15,-93 0,-28 4,-55 9,-60 5,-6 11,-53 14,-105 3,-68 8,-95 18,-98 8,-3 28,-10 44,-17 63,-26 111,-44 133,-50 41,-11 21,-38 -38,-50 -19,-4 -39,-10 -45,-14 -11,-6 -48,-20 -140,-52 -76,-26 -125,-19 -227,32 -10,5 -24,9 -32,9 -7,0 -19,7 -26,15 -10,12 -9,15 4,15 9,0 24,5 34,10 9,6 49,22 87,36 150,55 165,61 171,67 4,3 -14,15 -40,27 -25,11 -66,29 -91,40 -25,11 -52,20 -60,20 -24,0 -46,45 -46,92 0,82 -11,183 -21,195 -5,7 -8,34 -6,60 3,46 2,48 -32,64 -19,9 -75,35 -124,58 -48,23 -89,41 -91,39 -1,-2 2,-43 7,-93 5,-49 11,-119 12,-155 2,-36 6,-75 10,-87 11,-35 -1,-44 -37,-29 -95,40 -239,102 -287,124 -53,23 -72,32 -151,65 -80,34 -102,32 -196,-13 -238,-114 -225,-110 -276,-84 -57,30 -67,34 -78,34 -10,0 -40,12 -114,45 -16,7 -52,16 -80,18 -27,3 -51,10 -53,16 -2,6 -8,9 -13,5 -5,-3 -9,0 -9,7 0,6 -8,9 -20,6 -11,-3 -20,-1 -20,5 0,5 -4,6 -10,3 -5,-3 -10,-1 -10,5 0,6 -4,8 -10,5 -5,-3 -10,-1 -10,5 0,7 -6,10 -12,8 -7,-3 -19,1 -26,9 -8,7 -18,11 -23,8 -5,-4 -9,-2 -9,3 0,6 -9,8 -20,5 -11,-3 -20,0 -20,6 0,6 -7,11 -15,11 -17,0 -77,-28 -85,-40 -3,-4 -43,-27 -89,-51 -46,-24 -93,-50 -105,-57 -34,-20 -59,-14 -321,84 -27,11 -53,23 -57,28 -3,5 15,23 40,39 26,16 58,37 72,46 14,10 46,27 71,39 26,13 54,31 62,40 16,17 14,19 -36,37 -28,10 -56,21 -62,25 -5,4 -26,11 -45,15 -19,4 -39,10 -45,14 -5,4 -37,18 -69,31 -46,18 -62,21 -75,12 -9,-7 -26,-16 -38,-22 -12,-5 -50,-29 -85,-53 -35,-24 -78,-52 -97,-62 -19,-9 -39,-21 -45,-26 -36,-30 -106,-79 -113,-79 -4,0 -34,-18 -66,-40 -31,-22 -62,-40 -67,-40 -6,0 -10,-3 -10,-7 0,-5 62,-28 138,-52 75,-24 142,-48 148,-53 6,-4 14,-5 17,-2 3,3 11,3 17,-1 13,-8 -27,-36 -143,-99 -63,-34 -87,-53 -87,-67 0,-10 7,-19 15,-19 8,0 23,-4 33,-9 9,-6 65,-25 124,-43 60,-18 108,-36 108,-40 0,-4 -32,-24 -72,-44 -39,-20 -78,-42 -85,-50 -28,-27 -63,-27 -151,2 -48,15 -91,31 -96,36 -6,4 -19,8 -30,8 -12,1 -37,7 -57,14 -34,12 -41,11 -90,-13 -53,-26 -82,-42 -148,-87 -24,-16 -39,-20 -55,-14 -20,8 -76,24 -196,56 -30,8 -68,19 -84,24 -31,10 -34,9 -141,-59 -68,-43 -80,-66 -38,-74 15,-3 55,-13 88,-22 33,-9 80,-21 104,-27 24,-5 59,-21 78,-34 20,-13 48,-24 64,-24 15,0 31,-4 34,-10 3,-5 28,-12 56,-16 27,-4 52,-11 55,-15 3,-5 18,-9 35,-9 53,0 31,-22 -71,-71 -36,-17 -67,-34 -70,-38 -20,-25 -164,-104 -173,-94 -3,3 -21,-5 -39,-18 -77,-55 -98,-62 -175,-55 -40,3 -81,10 -90,15 -35,17 -93,32 -103,26 -5,-3 -10,-1 -10,4 0,6 15,18 33,26 113,54 114,71 7,94 -30,7 -73,16 -95,22 -22,5 -47,11 -55,13 -8,1 -22,5 -30,8 -41,17 -62,15 -95,-8 -20,-13 -40,-24 -45,-24 -14,0 -70,-51 -70,-64 0,-13 -90,-76 -109,-76 -20,0 -11,-20 12,-24 12,-3 36,-8 52,-11 17,-4 61,-12 99,-20 37,-7 82,-23 99,-36 17,-12 40,-24 51,-26 12,-2 37,-6 56,-9 19,-3 44,-9 55,-14 11,-4 36,-12 55,-17 l 35,-9 -47,-19 c -27,-11 -48,-23 -48,-27 0,-4 -35,-24 -77,-44 -43,-21 -95,-52 -116,-71 -20,-18 -43,-33 -51,-33 -7,0 -19,-7 -26,-15 -10,-13 -9,-15 8,-15 12,0 23,-4 26,-9 3,-5 36,-12 73,-16 36,-4 81,-14 99,-22 31,-15 35,-14 98,17 70,34 75,34 181,10 28,-7 62,-12 78,-13 36,-3 34,-12 -5,-27 -54,-19 -63,-26 -63,-46 0,-16 12,-21 75,-31 41,-6 90,-15 109,-20 l 34,-8 -49,-22 c -27,-12 -80,-35 -119,-52 -41,-17 -64,-32 -55,-35 22,-7 128,-27 178,-33 23,-3 42,-9 42,-13 0,-4 17,-10 38,-13 38,-4 210,-38 292,-57 25,-6 80,-15 122,-20 42,-5 98,-15 124,-21 37,-10 58,-9 98,1 28,7 56,16 61,20 6,4 27,11 49,14 21,4 46,11 55,16 42,22 179,78 204,84 32,8 36,26 5,26 -12,0 -35,4 -52,10 -17,5 -44,12 -59,15 -24,5 -27,8 -17,20 7,8 18,15 26,15 23,0 64,23 64,36 0,8 -21,15 -57,20 -32,3 -69,12 -82,19 l -23,12 33,12 c 19,7 50,19 69,28 l 34,15 -24,18 c -13,10 -40,21 -60,24 -19,3 -63,11 -97,17 -45,9 -69,10 -85,2 -114,-53 -182,-71 -193,-53 -3,5 -19,10 -34,10 -15,0 -31,4 -37,9 -5,5 -24,11 -43,13 -46,4 -50,22 -9,38 93,37 228,106 225,114 -3,10 -26,17 -122,38 -87,19 -88,31 -4,74 72,37 118,45 144,24 6,-4 33,-11 60,-15 28,-4 55,-11 60,-15 6,-5 23,-10 39,-12 48,-5 39,-21 -29,-52 -36,-16 -65,-32 -65,-36 0,-4 12,-10 28,-13 49,-10 146,-35 182,-47 19,-7 55,-16 80,-21 59,-12 77,-16 123,-27 41,-11 43,-9 49,38 3,24 6,25 83,28 44,2 84,7 89,12 7,7 -1,10 -20,10 -17,0 -34,4 -40,8 -13,12 -132,32 -192,32 -28,0 -54,5 -57,10 -3,6 -23,10 -44,10 -20,0 -41,4 -47,9 -5,5 -20,11 -33,13 -14,1 -26,8 -28,15 -4,12 65,53 90,53 8,0 30,11 50,24 34,23 55,25 97,8 15,-6 83,-22 176,-42 48,-10 55,-8 125,24 41,19 83,42 95,52 26,24 60,44 76,44 7,1 31,9 53,20 22,11 49,20 60,21 11,1 -2,6 -30,11 -27,5 -54,13 -60,17 -5,5 -34,12 -63,16 -88,12 -91,10 223,161 77,37 153,74 168,82 22,11 35,12 50,4 30,-14 245,-79 285,-86 17,-3 32,-1 32,4 0,5 15,2 33,-7 57,-29 64,-32 101,-39 20,-3 47,-15 59,-26 22,-20 176,-77 207,-78 8,0 26,-6 40,-13 14,-7 64,-26 112,-42 48,-15 85,-32 82,-36 -3,-5 -24,-13 -47,-19 -23,-6 -50,-15 -59,-20 -36,-20 -104,-40 -139,-40 -32,0 -169,42 -194,60 -5,4 -37,15 -70,24 -33,10 -69,21 -80,26 -11,4 -45,13 -75,19 -49,11 -61,10 -110,-9 -30,-12 -69,-26 -87,-31 -18,-5 -35,-14 -38,-19 -4,-6 -15,-10 -26,-10 -26,0 -19,-24 7,-26 10,-1 39,-9 64,-17 25,-9 62,-19 83,-22 20,-4 40,-11 43,-16 3,-5 16,-9 29,-9 26,0 106,-17 140,-30 11,-5 36,-13 55,-20 19,-7 44,-16 55,-21 11,-5 40,-14 65,-20 185,-45 244,-61 260,-69 9,-4 31,-11 50,-15 19,-4 41,-11 50,-15 16,-8 88,-28 133,-37 33,-6 35,-20 5,-32 -47,-19 -159,-51 -176,-51 -9,0 -37,-7 -62,-15 -25,-8 -71,-22 -102,-31 -62,-18 -72,-29 -35,-39 12,-3 40,-11 62,-16 22,-6 50,-15 62,-20 16,-6 36,-3 65,10 24,10 61,21 83,25 21,4 51,14 66,21 21,11 34,12 65,3 22,-7 42,-11 46,-10 12,3 78,-28 78,-37 0,-14 -23,-28 -60,-36 -72,-14 -74,-15 -53,-31 10,-7 28,-14 41,-14 12,0 31,-5 42,-10 11,-6 28,-14 38,-19 10,-5 40,-12 68,-15 27,-4 56,-11 64,-16 7,-4 20,-5 29,0 9,4 52,16 96,25 172,36 315,77 315,91 0,8 -8,14 -18,14 -10,0 -22,4 -28,9 -5,5 -22,11 -38,13 -52,6 -41,26 19,33 30,4 58,11 60,16 3,4 27,11 53,15 26,4 50,11 53,17 4,5 17,11 30,13 13,1 40,8 59,14 19,7 60,17 90,24 l 55,12 -70,21 c -58,18 -78,20 -120,12 -27,-5 -57,-12 -65,-16 -8,-3 -46,-14 -85,-24 -64,-16 -71,-16 -82,-2 -7,9 -21,17 -30,18 -29,3 -75,17 -100,30 l -23,12 24,11 c 13,6 41,14 63,18 21,4 46,11 56,16 11,5 59,14 109,18 49,5 95,13 101,18 7,5 31,12 55,16 24,3 53,11 65,18 12,6 29,14 37,18 15,7 100,-18 111,-33 13,-18 171,6 234,34 28,12 100,30 165,39 59,9 133,27 165,40 33,14 69,24 79,21 5,-1 16,1 24,4 20,7 -59,51 -111,60 -21,4 -41,13 -45,20 -7,12 -82,46 -187,85 -112,42 -140,52 -160,61 -11,5 -42,15 -70,23 -107,30 -198,76 -150,76 8,0 23,5 33,10 26,16 245,92 264,92 9,-1 72,-26 140,-57 67,-32 148,-68 180,-82 61,-28 96,-26 79,4 -5,10 -12,62 -16,116 -4,53 -11,100 -16,103 -9,5 -13,64 -4,64 4,0 38,-14 121,-52 22,-10 45,-18 51,-18 11,0 7,80 -5,110 -3,8 -12,58 -19,110 -6,52 -19,140 -28,195 -9,55 -19,120 -22,145 -3,25 -9,49 -14,55 -5,5 -9,26 -9,48 0,21 -4,46 -9,56 -5,9 -13,57 -17,105 l -7,88 70,-35 c 38,-20 74,-41 80,-49 13,-16 21,-57 34,-173 6,-49 13,-97 16,-105 3,-8 7,-33 9,-55 3,-50 14,-115 21,-135 10,-24 10,-28 12,-65 1,-33 5,-37 74,-72 115,-60 110,-59 104,-16 -3,21 -11,63 -17,93 -6,30 -13,69 -15,85 -1,17 -5,37 -8,45 -3,8 -8,33 -11,55 -22,162 -33,223 -44,242 -7,12 -41,38 -76,58 -35,20 -70,43 -77,51 -7,9 -19,57 -26,107 -8,51 -16,107 -19,125 -7,38 10,43 47,13 30,-23 84,-51 100,-51 7,0 9,12 5,38 -24,160 -29,212 -18,212 5,0 26,-11 46,-25 48,-32 59,-32 52,3 -3,15 -13,67 -21,116 -8,49 -20,95 -27,103 -7,8 -68,52 -137,98 -70,45 -136,96 -147,112 -16,21 -24,51 -29,113 -4,47 -10,90 -14,95 -3,6 -7,30 -8,55 -1,25 -9,88 -18,140 -28,165 -35,214 -35,240 0,14 -5,37 -11,51 -6,15 -9,39 -7,54 l 3,28 25,-21 c 90,-78 142,-104 124,-64 -4,9 -12,56 -18,103 -8,65 -18,96 -39,127 -15,23 -32,42 -38,42 -6,0 -27,14 -46,30 -54,48 -65,42 -57,-32 4,-35 11,-71 15,-80 9,-17 12,-68 5,-68 -8,0 -89,57 -125,88 -28,23 -36,38 -42,83 -5,30 -12,79 -17,109 -5,30 -8,57 -6,59 2,3 82,-56 94,-70 12,-14 70,-42 76,-37 3,4 1,15 -4,25 -5,10 -13,56 -17,103 -4,47 -10,89 -13,95 -4,5 -12,48 -19,95 -6,47 -16,104 -21,128 -9,42 -54,102 -77,102 -6,0 -29,18 -50,40 -21,22 -44,40 -50,40 -6,0 -26,16 -45,35 -19,19 -39,35 -45,35 -6,0 -25,15 -43,33 -24,25 -32,42 -32,69 0,20 -5,40 -10,43 -6,4 -10,21 -10,38 3,90 -8,112 -97,193 -93,84 -109,86 -99,12 17,-126 18,-140 7,-151 -7,-7 -24,2 -59,34 -26,24 -64,58 -84,76 l -35,31 -7,111 c -4,61 -12,113 -17,117 -5,3 -5,14 2,26 12,23 11,36 -32,266 -6,31 -13,83 -16,114 l -5,57 -91,82 c -51,46 -96,88 -102,94 -5,6 -54,51 -108,99 -91,81 -132,102 -107,56 5,-10 10,-43 10,-73 0,-29 3,-57 8,-61 4,-4 7,-19 7,-32 1,-23 -1,-23 -37,13 -39,38 -47,49 -25,37 7,-4 9,-3 4,2 -5,5 -14,9 -20,9 -7,1 -11,7 -9,14 1,7 -2,10 -7,7 -5,-3 -24,8 -42,24 -19,16 -38,30 -42,30 -5,0 -6,-33 -2,-72 3,-40 8,-102 11,-138 8,-109 21,-214 29,-236 4,-13 2,-25 -4,-29 -11,-6 -60,33 -261,208 -49,42 -92,77 -96,77 -4,0 -29,19 -55,43 -26,23 -87,74 -134,112 -47,39 -103,85 -124,103 -43,36 -56,40 -46,15 z m 957,-326 c 38,-34 79,-71 93,-82 22,-18 25,-30 31,-105 3,-47 10,-95 16,-107 28,-57 -18,-34 -117,57 -77,71 -95,107 -95,185 0,28 -3,65 -6,83 -3,17 -2,32 2,32 5,0 39,-28 76,-63 z M 7597,7713 c -2,-16 -4,-5 -4,22 0,28 2,40 4,28 2,-13 2,-35 0,-50 z m 1770,-305 c -2,-13 -4,-3 -4,22 0,25 2,35 4,23 2,-13 2,-33 0,-45 z m -130,-147 c 1,-14 9,-78 18,-141 8,-63 18,-131 20,-150 6,-43 21,-150 35,-249 6,-40 8,-76 5,-79 -5,-5 -54,14 -135,51 -25,12 -50,20 -56,19 -7,-1 -12,8 -13,20 -3,60 -27,254 -33,263 -3,6 -10,59 -14,118 -4,59 -11,110 -15,113 -5,3 -9,25 -9,50 0,25 -4,54 -10,64 -5,10 -7,25 -4,34 5,12 24,6 107,-36 89,-43 102,-54 104,-77 z M 6185,6758 c 17,-5 39,-14 50,-18 11,-5 55,-19 99,-33 43,-13 75,-27 69,-30 -5,-3 -62,-32 -128,-65 -123,-62 -136,-64 -196,-32 -9,5 -33,12 -53,15 -20,4 -39,11 -42,16 -2,5 -27,11 -54,15 -28,4 -50,10 -50,14 0,4 35,26 78,48 42,22 97,51 121,65 24,14 51,23 60,20 9,-3 30,-9 46,-15 z m 1517,-62 c 32,-10 60,-21 63,-26 3,-4 21,-11 40,-14 45,-9 44,-22 -2,-43 -21,-9 -60,-26 -88,-38 -27,-13 -70,-31 -95,-41 -25,-10 -56,-25 -70,-34 -14,-9 -52,-26 -85,-38 -33,-13 -88,-36 -123,-53 -57,-27 -65,-28 -90,-15 -15,7 -43,17 -62,21 -19,4 -39,11 -45,15 -5,4 -25,11 -43,15 -18,4 -45,13 -59,20 -23,12 -24,14 -7,23 11,6 24,10 29,10 13,1 93,36 166,73 31,16 64,29 73,29 14,0 47,14 204,88 61,29 113,42 127,32 6,-4 36,-15 67,-24 z M 5715,6468 c 22,-6 47,-14 55,-18 9,-4 31,-11 50,-15 19,-4 41,-12 47,-17 7,-6 20,-7 30,-4 26,10 284,-72 291,-92 2,-7 -2,-12 -10,-12 -17,0 -169,-77 -187,-95 -16,-16 -13,-18 39,-29 50,-10 115,-29 132,-37 10,-5 24,-9 32,-9 7,0 19,-7 26,-15 10,-12 9,-15 -6,-15 -11,0 -36,-9 -57,-20 -20,-11 -44,-20 -52,-20 -8,0 -15,-4 -15,-9 0,-22 -110,-17 -175,9 -36,14 -109,32 -135,33 -14,1 -28,6 -32,11 -4,6 -29,16 -55,22 -26,7 -66,18 -88,24 -22,6 -52,14 -68,17 -15,3 -30,9 -33,14 -3,5 33,28 81,51 99,50 107,68 38,87 -27,7 -68,19 -93,26 -25,7 -62,17 -82,20 -59,11 -60,9 91,87 63,32 76,35 104,26 18,-5 50,-15 72,-20 z m 2168,-84 c 29,-9 66,-22 82,-29 17,-8 38,-16 48,-19 26,-8 21,-25 -10,-32 -16,-3 -53,-17 -83,-29 -30,-13 -80,-31 -110,-40 l -55,-17 -102,33 c -57,19 -102,38 -100,42 2,8 43,26 142,64 22,9 54,22 70,29 39,18 56,17 118,-2 z m 817,-294 c 0,-8 -69,-35 -115,-46 -16,-4 -34,-10 -40,-14 -5,-5 -37,-13 -71,-20 -57,-11 -66,-10 -142,16 -45,15 -82,30 -82,33 0,3 42,19 93,35 50,16 97,32 102,35 6,3 26,11 45,16 29,9 48,6 122,-19 48,-16 88,-32 88,-36 z m -470,-213 c 39,-9 76,-21 96,-32 l 22,-11 -27,-11 c -14,-6 -53,-19 -86,-28 -33,-9 -77,-23 -98,-30 -23,-9 -45,-11 -55,-6 -36,18 -68,31 -100,38 -18,5 -33,13 -33,18 -1,5 32,20 73,33 40,13 80,28 88,33 13,8 79,6 120,-4 z m 114,-340 c 43,-16 38,-20 -39,-32 -38,-6 -68,-16 -107,-36 -24,-12 -95,-11 -103,1 -3,6 -19,10 -35,10 -72,0 -22,39 68,55 23,4 44,10 47,15 8,12 125,4 169,-13 z"
       id="path608"
       inkscape:connector-curvature="0"
       style="fill:#003380;fill-opacity:1;stroke:#f4f426;stroke-opacity:0.72944294" />
    <path
       d="m 5913,11323 c -3,-10 -20,-34 -39,-53 -59,-63 -104,-117 -104,-127 0,-5 -13,-22 -30,-38 l -30,-29 v -130 -131 l 43,47 c 23,26 73,82 110,126 l 68,79 2,136 c 2,126 -4,164 -20,120 z"
       id="path610"
       inkscape:connector-curvature="0"
       style="fill:#003380;fill-opacity:1;stroke:#f4f426;stroke-opacity:0.72944294" />
    <path
       d="m 4851,11051 c -17,-21 -31,-43 -31,-47 -1,-5 -19,-29 -41,-54 l -41,-45 6,72 c 3,39 9,79 13,89 4,10 2,15 -5,13 -20,-7 -152,-203 -152,-226 0,-12 -4,-25 -10,-28 -15,-9 -13,-138 2,-133 6,2 16,13 22,24 6,10 25,37 42,59 17,22 36,50 43,63 25,47 33,23 29,-93 l -3,-114 20,24 c 72,87 85,105 85,113 0,4 11,19 24,31 15,14 29,44 35,73 13,60 14,218 2,218 -5,0 -23,-18 -40,-39 z"
       id="path612"
       inkscape:connector-curvature="0"
       style="fill:#003380;fill-opacity:1;stroke:#f4f426;stroke-opacity:0.72944294" />
    <path
       d="m 5608,10656 c -38,-41 -68,-78 -68,-82 0,-5 -15,-24 -34,-44 l -34,-35 -6,-295 -6,-295 109,112 c 84,85 111,120 116,146 4,19 3,155 -2,301 l -8,267 z"
       id="path614"
       inkscape:connector-curvature="0"
       style="fill:#003380;fill-opacity:1;stroke:#f4f426;stroke-opacity:0.72944294" />
    <path
       d="m 8060,10436 c 0,-19 5,-38 10,-41 6,-3 10,-36 11,-73 0,-37 3,-74 7,-83 8,-18 78,-79 137,-119 20,-14 46,-33 56,-42 10,-10 20,-18 22,-18 7,0 -6,146 -14,155 -5,5 -9,29 -9,53 0,39 -5,49 -42,83 -24,21 -47,38 -51,39 -5,0 -29,18 -54,40 -57,50 -73,51 -73,6 z"
       id="path616"
       inkscape:connector-curvature="0"
       style="fill:#003380;fill-opacity:1;stroke:#f4f426;stroke-opacity:0.72944294" />
    <path
       d="m 6235,10357 c -4,-13 -69,-86 -146,-163 l -139,-139 v -107 c 0,-60 4,-110 10,-113 6,-3 10,-23 10,-43 v -37 l 129,129 129,128 72,-43 c 166,-102 189,-116 223,-142 58,-44 70,-38 63,31 -4,31 -10,113 -14,181 -6,105 -10,126 -26,135 -10,6 -38,26 -61,44 -24,17 -47,32 -50,32 -4,0 -24,12 -44,28 -45,33 -70,49 -97,61 -12,5 -24,17 -27,25 -9,23 -26,19 -32,-7 z"
       id="path618"
       inkscape:connector-curvature="0"
       style="fill:#003380;fill-opacity:1;stroke:#f4f426;stroke-opacity:0.72944294" />
    <path
       d="m 4529,10348 c -14,-28 -51,-75 -82,-106 -19,-20 -22,-34 -25,-120 l -3,-97 33,37 c 87,99 86,97 94,206 4,56 4,102 1,102 -4,0 -12,-10 -18,-22 z"
       id="path620"
       inkscape:connector-curvature="0"
       style="fill:#003380;fill-opacity:1;stroke:#f4f426;stroke-opacity:0.72944294" />
    <path
       d="m 4826,10277 c -15,-17 -45,-54 -66,-80 -48,-58 -46,-48 -66,-259 -6,-65 3,-73 35,-30 11,15 32,41 45,57 66,79 76,95 76,118 0,14 5,29 10,32 12,8 13,182 1,189 -5,3 -21,-9 -35,-27 z"
       id="path622"
       inkscape:connector-curvature="0"
       style="fill:#003380;fill-opacity:1;stroke:#f4f426;stroke-opacity:0.72944294" />
    <path
       d="m 7427,10047 c 3,-67 10,-130 14,-139 12,-23 11,-28 -5,-28 -14,0 -112,61 -181,114 -52,40 -81,56 -89,49 -10,-10 -7,-121 4,-128 6,-3 10,-42 10,-86 0,-61 -3,-79 -14,-79 -8,0 -63,33 -123,73 -59,39 -120,79 -134,89 l -25,16 4,-201 c 3,-111 8,-267 11,-346 l 6,-144 30,-18 c 17,-10 46,-26 65,-36 19,-9 40,-21 45,-26 15,-13 85,-54 120,-71 17,-8 50,-33 75,-55 25,-22 50,-41 57,-41 6,0 24,-10 40,-23 15,-12 39,-28 53,-35 14,-7 40,-21 59,-33 21,-13 37,-17 43,-11 6,6 8,55 6,110 -1,55 0,95 4,89 4,-7 8,-55 8,-108 v -96 l 38,-16 c 20,-9 57,-30 82,-47 25,-16 59,-36 75,-44 17,-9 38,-21 47,-28 9,-7 19,-10 22,-7 6,6 -10,225 -20,264 -7,30 -31,54 -74,77 -14,7 -41,24 -60,38 -51,37 -72,49 -102,62 -15,7 -32,22 -39,35 -7,13 -16,23 -21,23 -5,0 -21,8 -36,19 -15,10 -67,44 -115,76 -49,32 -94,70 -101,84 -8,16 -15,81 -19,168 l -5,143 21,-12 c 12,-6 71,-44 130,-85 59,-40 111,-73 114,-73 3,0 2,68 -2,150 -8,172 -8,173 68,115 25,-19 49,-35 52,-35 4,0 30,-18 57,-40 28,-22 55,-40 61,-40 6,0 7,48 3,138 -6,109 -10,139 -23,147 -9,6 -31,22 -48,38 -18,15 -36,27 -40,27 -4,0 -25,14 -47,32 -22,17 -55,41 -73,54 l -33,22 z"
       id="path624"
       inkscape:connector-curvature="0"
       style="fill:#003380;fill-opacity:1;stroke:#f4f426;stroke-opacity:0.72944294" />
    <path
       d="m 9295,10100 c 4,-14 13,-66 19,-117 10,-84 14,-93 41,-114 17,-13 77,-66 134,-119 l 104,-95 -7,60 c -11,98 -29,175 -42,175 -6,0 -35,25 -63,55 -29,30 -55,55 -59,55 -3,0 -35,28 -71,63 -49,48 -62,56 -56,37 z"
       id="path626"
       inkscape:connector-curvature="0"
       style="fill:#003380;fill-opacity:1;stroke:#f4f426;stroke-opacity:0.72944294" />
    <path
       d="m 4339,9879 c -57,-69 -87,-112 -102,-144 -8,-16 -33,-51 -56,-77 -22,-25 -41,-50 -41,-55 0,-5 -9,-16 -20,-26 -16,-13 -20,-28 -18,-59 1,-23 -2,-43 -7,-45 -12,-4 -7,-103 5,-103 5,0 21,18 37,39 59,83 119,158 177,225 35,39 62,81 64,95 10,91 12,191 4,191 -5,0 -24,-19 -43,-41 z"
       id="path628"
       inkscape:connector-curvature="0"
       style="fill:#003380;fill-opacity:1;stroke:#f4f426;stroke-opacity:0.72944294" />
    <path
       d="m 5157,9852 c -31,-32 -57,-62 -57,-68 0,-5 -15,-24 -32,-42 l -33,-31 3,-132 3,-132 93,92 c 50,50 95,88 99,85 4,-4 7,-64 7,-133 v -126 l 97,98 c 53,53 99,97 103,97 16,0 20,-36 20,-173 v -142 l 112,113 c 61,61 115,112 120,112 4,0 8,-74 8,-165 0,-91 3,-165 6,-165 3,0 62,52 130,116 l 124,116 v 174 c 0,96 -4,174 -8,174 -4,0 -30,-22 -57,-50 -27,-27 -54,-50 -60,-50 -6,0 -35,-25 -65,-55 -30,-30 -58,-55 -62,-55 -4,0 -8,68 -8,150 0,127 -2,150 -15,150 -8,0 -15,-5 -15,-11 0,-13 -199,-219 -212,-219 -4,0 -9,61 -10,135 l -3,135 -92,-91 c -51,-51 -93,-96 -93,-100 0,-5 -7,-9 -15,-9 -13,0 -15,21 -15,130 0,72 -4,130 -8,130 -4,0 -33,-26 -65,-58 z"
       id="path630"
       inkscape:connector-curvature="0"
       style="fill:#003380;fill-opacity:1;stroke:#f4f426;stroke-opacity:0.72944294" />
    <path
       d="m 3853,9643 c -17,-21 -33,-45 -37,-53 -4,-8 -13,-26 -21,-40 -9,-16 -15,-53 -15,-99 0,-73 0,-74 20,-56 11,10 20,23 20,30 0,7 9,20 21,31 30,27 47,74 55,154 8,81 -1,88 -43,33 z"
       id="path632"
       inkscape:connector-curvature="0"
       style="fill:#003380;fill-opacity:1;stroke:#f4f426;stroke-opacity:0.72944294" />
    <path
       d="m 8164,9573 c 4,-32 9,-88 12,-125 5,-66 7,-69 52,-108 26,-22 51,-40 56,-40 6,0 30,-17 55,-38 25,-21 54,-41 64,-45 9,-3 17,-11 17,-17 0,-5 5,-10 10,-10 11,0 100,-59 135,-90 39,-33 41,-31 37,33 -2,34 -7,71 -12,82 -5,11 -11,42 -12,70 -2,40 -7,52 -26,61 -12,6 -33,20 -45,31 -12,11 -29,22 -37,26 -8,3 -47,32 -87,66 -39,34 -75,61 -79,61 -4,0 -25,15 -48,33 -23,18 -54,41 -69,51 l -29,18 z"
       id="path634"
       inkscape:connector-curvature="0"
       style="fill:#003380;fill-opacity:1;stroke:#f4f426;stroke-opacity:0.72944294" />
    <path
       d="m 8564,9533 c 12,-132 24,-207 34,-211 6,-2 30,-17 54,-35 61,-45 104,-74 126,-86 17,-9 18,-5 14,52 -2,34 -8,66 -13,72 -5,5 -9,32 -9,60 0,55 -15,77 -85,125 -20,14 -52,37 -72,53 -20,15 -40,27 -45,27 -6,0 -8,-24 -4,-57 z"
       id="path636"
       inkscape:connector-curvature="0"
       style="fill:#003380;fill-opacity:1;stroke:#f4f426;stroke-opacity:0.72944294" />
    <path
       d="m 5645,9070 c -22,-16 -127,-116 -232,-222 l -193,-193 -10,-190 c -11,-215 -13,-459 -4,-468 9,-9 43,10 69,39 12,13 26,24 29,24 4,0 34,24 67,53 l 59,52 -1,184 -1,185 38,33 c 22,19 75,65 118,103 44,39 85,70 93,70 10,0 13,-35 13,-170 0,-93 4,-170 8,-170 5,0 34,21 65,48 31,26 86,71 122,101 l 65,53 v 186 186 l -37,-35 c -70,-64 -161,-144 -192,-167 -26,-20 -32,-21 -37,-8 -3,8 -4,87 -2,176 1,88 3,160 3,159 0,0 -18,-14 -40,-29 z"
       id="path638"
       inkscape:connector-curvature="0"
       style="fill:#003380;fill-opacity:1;stroke:#f4f426;stroke-opacity:0.72944294" />
    <path
       d="m 8997,8973 c 3,-37 9,-75 14,-84 4,-8 9,-43 11,-77 2,-50 6,-62 19,-62 9,0 23,-7 30,-16 7,-9 39,-34 72,-55 71,-47 75,-42 59,80 -17,132 -20,144 -58,171 -20,14 -56,41 -82,61 -75,57 -72,58 -65,-18 z"
       id="path640"
       inkscape:connector-curvature="0"
       style="fill:#003380;fill-opacity:1;stroke:#f4f426;stroke-opacity:0.72944294" />
    <path
       d="m 5103,8876 -93,-89 v -146 -146 l 95,95 96,96 -3,139 -3,140 z"
       id="path642"
       inkscape:connector-curvature="0"
       style="fill:#003380;fill-opacity:1;stroke:#f4f426;stroke-opacity:0.72944294" />
    <path
       d="m 7494,8780 c 0,-52 1,-74 3,-47 2,26 2,68 0,95 -2,26 -3,4 -3,-48 z"
       id="path644"
       inkscape:connector-curvature="0"
       style="fill:#003380;fill-opacity:1;stroke:#f4f426;stroke-opacity:0.72944294" />
    <path
       d="m 9645,8753 c 4,-16 9,-44 11,-63 12,-108 26,-141 77,-183 70,-56 71,-56 64,-6 -22,170 -41,229 -70,229 -8,0 -24,11 -37,25 -32,35 -54,33 -45,-2 z"
       id="path646"
       inkscape:connector-curvature="0"
       style="fill:#003380;fill-opacity:1;stroke:#f4f426;stroke-opacity:0.72944294" />
    <path
       d="m 8470,8536 c 0,-25 4,-47 9,-50 5,-3 10,-43 13,-88 2,-47 11,-93 19,-106 8,-13 46,-41 84,-63 39,-22 82,-48 97,-57 15,-9 30,-14 33,-10 3,3 1,48 -5,99 -6,52 -13,116 -16,142 -6,45 -9,50 -57,78 -29,17 -77,46 -107,65 -30,18 -58,34 -62,34 -5,0 -8,-20 -8,-44 z"
       id="path648"
       inkscape:connector-curvature="0"
       style="fill:#003380;fill-opacity:1;stroke:#f4f426;stroke-opacity:0.72944294" />
    <path
       d="m 6293,8360 c 4,-35 7,-124 7,-199 l 1,-136 38,-17 c 20,-10 41,-18 44,-18 7,0 150,-65 210,-96 16,-8 33,-14 38,-14 11,0 12,350 1,366 -5,8 -280,149 -336,173 -5,2 -6,-22 -3,-59 z"
       id="path650"
       inkscape:connector-curvature="0"
       style="fill:#003380;fill-opacity:1;stroke:#f4f426;stroke-opacity:0.72944294" />
    <path
       d="m 4575,8350 c -17,-18 -42,-38 -57,-46 -49,-26 -68,-83 -68,-207 v -109 l 70,70 70,69 v 105 c 0,63 4,108 11,115 6,6 10,16 7,23 -2,6 -17,-3 -33,-20 z"
       id="path652"
       inkscape:connector-curvature="0"
       style="fill:#003380;fill-opacity:1;stroke:#f4f426;stroke-opacity:0.72944294" />
    <path
       d="m 3833,8123 c -9,-16 -29,-41 -44,-58 -24,-27 -27,-39 -32,-135 l -6,-104 50,50 50,50 7,112 c 4,62 4,112 0,112 -4,0 -15,-12 -25,-27 z"
       id="path654"
       inkscape:connector-curvature="0"
       style="fill:#003380;fill-opacity:1;stroke:#f4f426;stroke-opacity:0.72944294" />
    <path
       d="m 4945,8095 c -16,-13 -58,-48 -91,-77 l -61,-53 -6,-115 c -3,-63 -8,-132 -12,-152 -10,-51 4,-49 64,7 26,25 53,45 58,45 5,0 18,9 28,20 40,45 45,30 47,-152 2,-95 2,-200 1,-233 -3,-93 -32,-543 -39,-607 -7,-69 -2,-71 69,-25 96,62 112,72 132,82 18,10 20,22 23,160 1,83 6,159 12,170 5,11 11,33 12,49 3,33 59,82 163,146 31,19 60,42 65,50 4,8 11,99 15,203 5,141 4,187 -5,187 -12,0 -23,-7 -128,-90 -32,-25 -68,-51 -81,-58 l -22,-13 5,108 c 3,59 8,134 11,166 5,39 3,57 -4,57 -15,0 -58,-28 -96,-62 -83,-73 -113,-98 -121,-98 -5,0 -8,53 -6,117 2,65 2,135 0,155 l -3,36 z"
       id="path656"
       inkscape:connector-curvature="0"
       style="fill:#003380;fill-opacity:1;stroke:#f4f426;stroke-opacity:0.72944294" />
    <path
       d="m 4040,7586 c -30,-30 -60,-62 -66,-73 -7,-11 -15,-103 -19,-221 -4,-111 -11,-205 -16,-208 -13,-7 -11,-104 1,-104 6,0 33,20 59,45 26,25 54,45 61,45 10,0 12,-30 7,-145 -3,-82 -2,-145 3,-145 5,0 60,42 122,93 62,51 125,100 141,110 22,14 27,25 27,57 0,21 5,42 10,45 6,4 10,55 10,118 1,78 5,120 15,137 16,28 22,290 6,290 -5,0 -15,-7 -22,-17 -8,-9 -41,-39 -74,-66 -37,-31 -63,-62 -69,-81 -5,-17 -11,-83 -13,-146 l -4,-115 -37,-37 c -20,-21 -41,-38 -48,-38 -6,0 -17,-7 -24,-15 -26,-32 -31,-14 -27,98 6,158 14,427 13,427 -1,0 -26,-25 -56,-54 z"
       id="path658"
       inkscape:connector-curvature="0"
       style="fill:#003380;fill-opacity:1;stroke:#f4f426;stroke-opacity:0.72944294" />
    <path
       d="m 3654,7498 c -62,-64 -74,-97 -74,-200 0,-44 -5,-88 -10,-98 -7,-13 -7,-21 1,-25 10,-7 110,77 124,105 4,8 11,62 15,120 4,58 9,114 11,124 7,35 -16,26 -67,-26 z"
       id="path660"
       inkscape:connector-curvature="0"
       style="fill:#003380;fill-opacity:1;stroke:#f4f426;stroke-opacity:0.72944294" />
    <path
       d="m 3439,7494 c -19,-20 -26,-44 -36,-117 -7,-51 -12,-103 -12,-116 -1,-25 -1,-25 33,8 19,18 37,47 41,65 12,52 17,186 8,186 -5,0 -20,-12 -34,-26 z"
       id="path662"
       inkscape:connector-curvature="0"
       style="fill:#003380;fill-opacity:1;stroke:#f4f426;stroke-opacity:0.72944294" />
    <path
       d="m 4540,7112 c -14,-5 -40,-24 -110,-82 -14,-12 -30,-24 -36,-28 -7,-4 -13,-68 -17,-166 l -7,-159 23,20 c 12,11 50,39 85,62 l 62,42 v 90 c 0,50 5,99 11,110 5,11 9,41 7,68 -2,37 -6,47 -18,43 z"
       id="path664"
       inkscape:connector-curvature="0"
       style="fill:#003380;fill-opacity:1;stroke:#f4f426;stroke-opacity:0.72944294" />
    <path
       d="m 3847,6881 c -25,-21 -51,-41 -57,-43 -7,-2 -13,-52 -17,-133 -3,-72 -10,-138 -15,-147 -5,-10 -6,-18 -2,-18 9,0 69,48 109,88 33,32 34,33 38,140 2,59 6,116 8,126 7,33 -17,28 -64,-13 z"
       id="path666"
       inkscape:connector-curvature="0"
       style="fill:#003380;fill-opacity:1;stroke:#f4f426;stroke-opacity:0.72944294" />
    <path
       d="m 9720,5883 c -8,-2 -24,-8 -35,-13 -11,-5 -33,-11 -50,-14 -16,-4 -39,-8 -50,-10 -99,-21 -111,-47 -31,-65 52,-12 62,-10 183,24 70,20 135,38 143,41 25,9 -60,43 -105,43 -22,0 -47,-3 -55,-6 z"
       id="path668"
       inkscape:connector-curvature="0"
       style="fill:#003380;fill-opacity:1;stroke:#f4f426;stroke-opacity:0.72944294" />
    <path
       d="m 6536,5823 c -12,-12 -6,-33 9,-33 8,0 15,6 15,14 0,17 -14,28 -24,19 z"
       id="path670"
       inkscape:connector-curvature="0"
       style="fill:#003380;fill-opacity:1;stroke:#f4f426;stroke-opacity:0.72944294" />
    <path
       d="m 6275,5806 c -16,-6 -36,-15 -43,-20 -8,-4 -26,-12 -40,-16 l -27,-8 31,-1 c 17,-1 36,-7 42,-14 7,-8 13,-72 14,-158 l 3,-144 148,-3 149,-3 -6,78 c -3,43 -9,119 -13,168 l -8,90 -50,13 c -108,29 -121,31 -145,31 -14,-1 -38,-6 -55,-13 z"
       id="path672"
       inkscape:connector-curvature="0"
       style="fill:#003380;fill-opacity:1;stroke:#f4f426;stroke-opacity:0.72944294" />
    <path
       d="m 3400,5732 c -25,-17 -56,-41 -70,-54 -14,-13 -38,-29 -55,-37 l -30,-14 70,-12 c 68,-12 137,-25 315,-61 142,-28 156,-28 213,-4 28,12 71,38 96,56 24,19 56,38 70,42 22,6 19,8 -24,14 -59,8 -181,32 -245,48 -83,21 -195,42 -245,47 -43,4 -56,0 -95,-25 z"
       id="path674"
       inkscape:connector-curvature="0"
       style="fill:#003380;fill-opacity:1;stroke:#f4f426;stroke-opacity:0.72944294" />
    <path
       d="m 7190,5535 c 0,-30 4,-55 8,-55 5,0 35,8 68,19 32,10 71,22 87,25 41,10 33,23 -20,31 -27,4 -55,10 -63,15 -8,4 -30,10 -47,13 l -33,7 z"
       id="path676"
       inkscape:connector-curvature="0"
       style="fill:#003380;fill-opacity:1;stroke:#f4f426;stroke-opacity:0.72944294" />
    <path
       d="m 5885,5518 c -11,-7 -36,-17 -55,-24 l -34,-12 34,-14 c 19,-8 50,-18 68,-21 l 33,-7 -3,42 c -3,45 -13,53 -43,36 z"
       id="path678"
       inkscape:connector-curvature="0"
       style="fill:#003380;fill-opacity:1;stroke:#f4f426;stroke-opacity:0.72944294" />
    <path
       d="m 6263,5390 c 0,-25 2,-35 4,-22 2,12 2,32 0,45 -2,12 -4,2 -4,-23 z"
       id="path680"
       inkscape:connector-curvature="0"
       style="fill:#003380;fill-opacity:1;stroke:#f4f426;stroke-opacity:0.72944294" />
    <path
       d="m 6543,5365 c 0,-38 2,-53 4,-32 2,20 2,52 0,70 -2,17 -4,1 -4,-38 z"
       id="path682"
       inkscape:connector-curvature="0"
       style="fill:#003380;fill-opacity:1;stroke:#f4f426;stroke-opacity:0.72944294" />
    <path
       d="m 5873,5388 c -33,-16 -28,-25 15,-31 42,-5 55,2 46,26 -7,19 -28,21 -61,5 z"
       id="path684"
       inkscape:connector-curvature="0"
       style="fill:#003380;fill-opacity:1;stroke:#f4f426;stroke-opacity:0.72944294" />
    <path
       d="m 7675,5314 c -11,-3 -29,-9 -40,-14 -11,-4 -29,-11 -40,-15 -15,-6 -17,-8 -5,-12 8,-2 24,-8 35,-13 40,-17 74,-17 145,1 39,10 76,22 83,26 24,15 -129,38 -178,27 z"
       id="path686"
       inkscape:connector-curvature="0"
       style="fill:#003380;fill-opacity:1;stroke:#f4f426;stroke-opacity:0.72944294" />
    <path
       d="m 6529,5225 -4,-50 -50,-3 c -193,-11 -205,-13 -210,-36 -7,-25 1,-518 12,-771 l 8,-180 h 145 145 l 3,40 c 2,22 8,44 13,50 13,13 11,169 -3,183 -8,8 -12,97 -13,304 -2,194 -6,301 -14,318 -6,14 -15,63 -19,110 -8,78 -9,81 -13,35 z"
       id="path688"
       inkscape:connector-curvature="0"
       style="fill:#003380;fill-opacity:1;stroke:#f4f426;stroke-opacity:0.72944294" />
    <path
       d="m 7216,5255 c -16,-43 2,-78 29,-55 8,6 18,9 22,7 11,-7 73,20 73,31 0,6 -15,12 -32,15 -18,3 -45,9 -59,12 -19,5 -28,2 -33,-10 z"
       id="path690"
       inkscape:connector-curvature="0"
       style="fill:#003380;fill-opacity:1;stroke:#f4f426;stroke-opacity:0.72944294" />
    <path
       d="m 7425,5255 c -38,-17 -33,-17 35,0 40,10 47,13 25,14 -16,0 -43,-6 -60,-14 z"
       id="path692"
       inkscape:connector-curvature="0"
       style="fill:#003380;fill-opacity:1;stroke:#f4f426;stroke-opacity:0.72944294" />
    <path
       d="m 5815,5239 c -80,-26 -91,-39 -33,-39 26,0 50,-5 53,-10 10,-16 96,-8 90,8 -3,8 -5,25 -5,38 0,30 -21,31 -105,3 z"
       id="path694"
       inkscape:connector-curvature="0"
       style="fill:#003380;fill-opacity:1;stroke:#f4f426;stroke-opacity:0.72944294" />
    <path
       d="m 7210,5145 c 0,-22 20,-27 65,-17 l 40,9 -28,12 c -41,16 -77,14 -77,-4 z"
       id="path696"
       inkscape:connector-curvature="0"
       style="fill:#003380;fill-opacity:1;stroke:#f4f426;stroke-opacity:0.72944294" />
    <path
       d="m 7314,3175 c -4,-8 -2,-21 4,-28 5,-6 12,-80 14,-164 2,-90 8,-157 14,-163 7,-7 69,-10 180,-8 l 169,3 3,109 c 2,66 -1,113 -8,120 -5,5 -10,41 -10,78 v 68 h -180 c -152,0 -182,-2 -186,-15 z"
       id="path710"
       inkscape:connector-curvature="0"
       style="fill:#003380;fill-opacity:1;stroke:#f4f426;stroke-opacity:0.72944294" />
    <path
       d="m 5297,3164 c -4,-4 -7,-57 -8,-118 0,-61 -4,-132 -8,-159 -6,-33 -4,-50 4,-57 8,-7 74,-9 171,-8 l 159,3 v 170 170 l -156,3 c -85,1 -158,-1 -162,-4 z"
       id="path712"
       inkscape:connector-curvature="0"
       style="fill:#003380;fill-opacity:1;stroke:#f4f426;stroke-opacity:0.72944294" />
    <path
       d="m 6320,2815 c -2,-41 0,-348 2,-351 2,-1 67,-4 143,-5 l 140,-1 -3,143 c -2,79 -5,161 -8,182 l -6,37 h -134 c -74,0 -134,-2 -134,-5 z"
       id="path714"
       inkscape:connector-curvature="0"
       style="fill:#003380;fill-opacity:1;stroke:#f4f426;stroke-opacity:0.72944294" />
    <path
       d="m 8427,2803 c -11,-10 -8,-131 3,-138 6,-3 10,-35 10,-71 0,-36 5,-95 10,-132 6,-37 15,-119 20,-182 5,-63 13,-139 17,-168 l 8,-53 168,-2 c 92,-1 167,0 167,3 0,3 -5,43 -10,90 -6,47 -17,150 -25,230 -32,321 -35,356 -41,393 l -6,37 h -157 c -87,0 -161,-3 -164,-7 z"
       id="path716"
       inkscape:connector-curvature="0"
       style="fill:#003380;fill-opacity:1;stroke:#f4f426;stroke-opacity:0.72944294" />
    <path
       d="m 8146,1633 c 4,-10 12,-91 17,-179 l 9,-161 67,-7 c 36,-3 117,-6 180,-6 h 114 l -6,94 c -5,70 -3,98 7,111 10,13 11,28 5,49 -5,17 -9,50 -9,73 v 43 h -196 c -183,0 -196,-1 -188,-17 z"
       id="path718"
       inkscape:connector-curvature="0"
       style="fill:#003380;fill-opacity:1;stroke:#f4f426;stroke-opacity:0.72944294" />
    <path
       d="m 7434,1255 c -4,-8 -3,-32 1,-53 4,-20 9,-99 12,-174 3,-89 8,-140 16,-146 7,-5 92,-13 191,-17 l 178,-7 -7,53 c -4,30 -9,101 -11,159 -3,58 -8,125 -12,150 l -7,45 -178,3 c -152,2 -178,0 -183,-13 z"
       id="path720"
       inkscape:connector-curvature="0"
       style="fill:#003380;fill-opacity:1;stroke:#f4f426;stroke-opacity:0.72944294" />
    <path
       d="m 6480,890 c -12,-8 -9,-10 13,-10 16,0 26,4 22,10 -8,12 -16,12 -35,0 z"
       id="path722"
       inkscape:connector-curvature="0"
       style="fill:#003380;fill-opacity:1;stroke:#f4f426;stroke-opacity:0.72944294" />
    <path
       d="m 6696,753 c 9,-78 14,-79 14,-5 0,38 -4,62 -11,62 -7,0 -8,-19 -3,-57 z"
       id="path724"
       inkscape:connector-curvature="0"
       style="fill:#003380;fill-opacity:1;stroke:#f4f426;stroke-opacity:0.72944294" />
  </g>
</svg>
